Coordinates
version=1
nRows=10
nColumns=34
inDegrees=yes

Units are S.I. units (second, meters, Newtons, ...)
If the header above contains a line with 'inDegrees', this indicates whether rotational values are in degrees (yes) or radians (no).

endheader
time	pelvis_tilt	pelvis_list	pelvis_rotation	pelvis_tx	pelvis_ty	pelvis_tz	hip_flexion_r	hip_adduction_r	hip_rotation_r	knee_angle_r	ankle_angle_r	subtalar_angle_r	mtp_angle_r	hip_flexion_l	hip_adduction_l	hip_rotation_l	knee_angle_l	ankle_angle_l	subtalar_angle_l	mtp_angle_l	lumbar_extension	lumbar_bending	lumbar_rotation	arm_flex_r	arm_add_r	arm_rot_r	elbow_flex_r	pro_sup_r	arm_flex_l	arm_add_l	arm_rot_l	elbow_flex_l	pro_sup_l
      2.69000000	      0.09237613	     -2.75027893	      7.28470223	      0.50503231	      0.93002637	      0.18800768	      1.63905639	      8.14339499	     -3.81000724	     -9.90544426	      6.26181392	     -3.90871775	      2.30405667	     21.40701060	      0.19960643	      4.69260946	    -55.04927108	     -1.85254550	    -10.17313931	     25.10464208	     -6.69078083	      4.25202747	      0.53596553	     -3.04395647	    -20.35413726	      5.45867020	     34.48854173	     90.00000000	     -0.96483040	    -16.29374700	     25.30804036	     17.79037720	     90.00000000
      2.70000000	     -0.07550570	     -2.39637550	      7.05572533	      0.51742159	      0.92991921	      0.18845868	      0.45632144	      7.88727497	     -3.54132742	     -9.07644783	      6.67808578	     -3.59213939	      2.37658015	     22.48274726	      0.50096753	      4.10766107	    -52.79587530	     -1.20697224	    -10.26942202	     24.94572969	     -6.63745235	      3.72403828	      0.97132479	     -2.63260627	    -20.73765336	      5.65227137	     35.62316172	     90.00000000	     -1.57023377	    -16.39695641	     24.88881634	     17.49310294	     90.00000000
      2.71000000	      0.01353595	     -2.04425653	      6.80154509	      0.53002638	      0.93005823	      0.18884151	     -1.04501568	      7.65121026	     -3.28623832	     -8.16680248	      7.08436386	     -3.31232914	      2.45138346	     23.08081888	      0.73260742	      3.45158684	    -50.10246641	     -0.78401740	    -10.47249848	     24.59594926	     -6.87416538	      3.24238485	      1.47750828	     -2.28936146	    -21.13934914	      5.81131728	     36.97423998	     90.00000000	     -2.04415960	    -16.42283230	     24.40718356	     16.94732498	     90.00000000
      2.72000000	      0.23090593	     -1.79410824	      6.63629947	      0.54262527	      0.92997274	      0.18904074	     -2.70977482	      7.53178471	     -3.15059959	     -7.19613284	      7.41003371	     -3.01955398	      2.42805124	     23.45878608	      0.88457522	      2.89681502	    -47.20786504	     -0.42909551	    -10.80762395	     24.00370432	     -7.20772223	      2.90177379	      1.91414976	     -1.96464232	    -21.56755712	      5.71117380	     38.26773540	     90.00000000	     -2.46135359	    -16.42438036	     23.99799222	     16.44314626	     90.00000000
      2.73000000	      0.19926608	     -1.88988195	      6.83223490	      0.55555016	      0.92916080	      0.18822696	     -4.14036908	      7.73256043	     -3.31131138	     -6.10369222	      7.65696191	     -2.69195872	      2.46218160	     24.12426478	      0.90390737	      2.74695090	    -44.22943207	     -0.10669436	    -10.88994295	     23.79920447	     -7.10939255	      3.03282386	      1.94029624	     -1.57998155	    -21.99950670	      5.59841391	     39.11737396	     90.00000000	     -3.17417469	    -16.37936314	     23.79050288	     16.29210711	     90.00000000
      2.74000000	      0.59830302	     -1.52159881	      6.26367970	      0.56788679	      0.92895734	      0.18906283	     -5.83371801	      7.45958033	     -2.78064560	     -5.45197717	      7.94871137	     -2.40139854	      1.67838622	     23.95652508	      1.02119374	      1.86877647	    -40.72202186	      0.44992822	    -11.00824609	     18.35449554	     -7.80897597	      2.57359412	      2.82364950	     -1.47481753	    -22.33152684	      4.79279498	     40.96170042	     90.00000000	     -3.37965678	    -16.33538234	     23.36072627	     15.61947998	     90.00000000
      2.75000000	      0.73303101	     -1.46997877	      6.06189432	      0.58082273	      0.92775027	      0.18920202	     -7.33166878	      7.49955827	     -2.48431618	     -4.63432797	      8.39506119	     -2.22791530	      1.73000267	     24.14015400	      0.98233825	      1.21922733	    -37.23396994	      0.11732467	    -11.40896505	     17.97722485	     -7.99094747	      2.45031389	      3.15188845	     -1.07629709	    -22.76327036	      4.97072128	     41.99674753	     90.00000000	     -3.90927217	    -16.29752778	     22.96625478	     15.13107302	     90.00000000
      2.76000000	      0.65855654	     -1.53571957	      5.90588227	      0.59371324	      0.92588940	      0.18927163	     -8.50058245	      7.63581300	     -2.26430703	     -3.97361111	      8.68742176	     -1.90811646	      1.75086248	     24.52805223	      0.88319583	      0.67667767	    -33.69718493	     -0.16948979	    -11.58252439	     17.73935337	     -7.89575036	      2.44912074	      3.38095300	     -0.63732628	    -23.09491366	      4.89510543	     42.89569134	     90.00000000	     -4.54415262	    -16.28644262	     22.69583336	     14.88901545	     90.00000000
      2.77000000	      1.02918497	     -1.49294151	      5.62700632	      0.60673672	      0.92466683	      0.18940429	    -10.04818976	      7.67054944	     -2.17717037	     -3.53900363	      9.11082096	     -1.64711095	      1.79965548	     24.23134883	      0.82710930	      0.00107492	    -29.86285516	     -0.54184970	    -12.17621040	     17.27359610	     -8.37860723	      2.37184816	      3.89510686	     -0.45927082	    -23.51217761	      4.71997808	     44.15665686	     90.00000000	     -4.87026437	    -16.18339822	     22.22362640	     14.20210507	     90.00000000
      2.78000000	      1.19076634	     -1.44788467	      5.44060370	      0.61973367	      0.92289534	      0.18931713	    -11.25861082	      7.67281327	     -2.14316072	     -3.31979748	      9.67104937	     -1.25140350	      1.99327795	     24.15587013	      0.85326360	     -0.56448074	    -26.11006847	     -0.53281461	    -12.29565101	     16.77207514	     -8.61698520	      2.28634109	      4.22770962	     -0.22032742	    -23.82266982	      4.38497381	     45.25559418	     90.00000000	     -5.26143263	    -16.10845838	     21.74131381	     13.78497595	     90.00000000
